<svg width="200" height="200" xmlns="http://www.w3.org/2000/svg">
 <!-- Created with Method Draw - http://github.com/duopixel/Method-Draw/ -->

 <g>
  <title>background</title>
  <rect fill="#fff" id="canvas_background" height="202" width="202" y="-1" x="-1"/>
  <g display="none" overflow="visible" y="0" x="0" height="100%" width="100%" id="canvasGrid">
   <rect fill="url(#gridpattern)" stroke-width="0" y="0" x="0" height="100%" width="100%"/>
  </g>
 </g>
 <g>
  <title>Layer 1</title>
  <g stroke="null" id="svg_55">
   <g stroke="null" transform="matrix(0.1526355780661106,0,0,0.1526355780661106,0,0) " id="svg_5">
    <g stroke="null" id="svg_6">
     <path stroke="null" id="svg_7" fill-rule="evenodd" fill="#ffdfcf" d="m549.39925,674.36458c-21.515,0 -41.328,-17.83 -40.705,-40.706l2.041,-73.446c-17.66,12.302 -29.253,32.74 -29.253,55.786l0,192.474l135.834,0l0,-192.474c0,-23.018 -11.594,-43.484 -29.253,-55.758l2.041,73.418c0.595,22.366 -18.311,40.706 -40.705,40.706z" clip-rule="evenodd"/>
    </g>
    <g stroke="null" id="svg_8">
     <path stroke="null" id="svg_9" fill-rule="evenodd" fill="#ffdfcf" d="m821.09525,708.35258c-21.486,0 -41.328,-17.83 -40.676,-40.706l2.013,-73.418c-17.66,12.302 -29.253,32.74 -29.253,55.758l0,158.486l135.834,0l0,-158.486c0,-23.018 -11.593,-43.456 -29.225,-55.758l2.013,73.418c0.594,22.365 -18.312,40.706 -40.706,40.706z" clip-rule="evenodd"/>
    </g>
    <g stroke="null" id="svg_10">
     <path stroke="null" id="svg_11" fill-rule="evenodd" fill="#fe72c5" d="m723.21725,478.03558c-0.057,-2.891 -2.353,-5.244 -5.216,-5.244l-65.508,0c-2.863,0 -5.131,2.353 -5.216,5.244l-0.709,25.342l-2.013,73.446c-0.624,22.847 19.19,40.678 40.705,40.678c22.365,0 41.3,-18.312 40.676,-40.678c-1.359,-49.493 -0.934,-33.818 -2.719,-98.788z" clip-rule="evenodd"/>
    </g>
    <g stroke="null" id="svg_12">
     <path stroke="null" id="svg_13" fill-rule="evenodd" fill="#ffdfcf" d="m753.17825,808.47258l0,-158.486l0,-90.851c0,-23.018 -11.594,-43.456 -29.253,-55.758l1.219,44.703l0.794,28.744c0.624,22.366 -18.311,40.678 -40.676,40.678c-4.422,0 -8.759,-0.737 -12.841,-2.126c-15.93,-5.386 -28.374,-20.381 -27.864,-38.552l2.013,-73.446c-17.631,12.302 -29.253,32.74 -29.253,55.758l0,56.864l0,192.472l135.861,0z" clip-rule="evenodd"/>
    </g>
    <g stroke="null" id="svg_14">
     <path stroke="null" id="svg_15" fill-rule="evenodd" fill="#ffcebf" d="m617.31625,808.47258l0,-192.474c0,-23.018 -11.594,-43.484 -29.253,-55.758l2.041,73.418c0.255,9.213 -2.806,17.745 -8.05,24.577l0,78.039l0,72.199l35.262,0l0,-0.001z" clip-rule="evenodd"/>
    </g>
    <g stroke="null" id="svg_16">
     <path stroke="null" id="svg_17" fill-rule="evenodd" fill="#ffcebf" d="m753.17825,808.47258l0,-158.486l0,-90.851c0,-17.547 -6.746,-33.619 -17.801,-45.695c-0.85,0.085 -1.729,0.113 -2.636,0.113c-1.899,0 -3.855,-0.227 -5.868,-0.652c-0.879,-0.198 -1.786,-0.454 -2.693,-0.765l0.964,35.944l0.794,28.744c0.255,9.014 -2.693,17.377 -7.738,24.151l0,49.011l0,29.339l0,129.147l34.978,0z" clip-rule="evenodd"/>
    </g>
    <g stroke="null" id="svg_18">
     <path stroke="null" id="svg_19" fill-rule="evenodd" fill="#ffcebf" d="m889.01225,808.47258l0,-158.486c0,-23.018 -11.593,-43.456 -29.225,-55.758l2.013,73.418c0.227,8.391 -2.296,16.214 -6.718,22.706l0,79.456l0,38.665l33.93,0l0,-0.001z" clip-rule="evenodd"/>
    </g>
    <g stroke="null" id="svg_20">
     <path stroke="null" id="svg_21" fill-rule="evenodd" fill="#fe4eb7" d="m723.21725,478.03558c-0.057,-2.891 -2.353,-5.244 -5.216,-5.244l-25.852,0c2.863,0 5.131,2.353 5.216,5.244l0.397,14.343c0.765,28.148 1.531,56.297 2.324,84.445c0.482,17.83 -11.452,33.109 -27.666,38.552c4.082,1.389 8.419,2.126 12.841,2.126c22.365,0 41.3,-18.312 40.676,-40.678c-0.906,-32.939 -1.813,-65.878 -2.72,-98.788z" clip-rule="evenodd"/>
    </g>
    <g stroke="null" id="svg_22">
     <path stroke="null" id="svg_23" fill-rule="evenodd" fill="#fe72c5" d="m859.07925,568.85758c-0.085,-2.863 -2.353,-5.216 -5.216,-5.216l-65.508,0c-2.891,0 -5.159,2.353 -5.244,5.216l-0.68,25.37l-2.013,73.418c-0.652,22.876 19.19,40.706 40.676,40.706c22.393,0 41.3,-18.34 40.705,-40.706l-2.013,-73.418l-0.707,-25.37z" clip-rule="evenodd"/>
    </g>
    <g stroke="null" id="svg_24">
     <path stroke="null" id="svg_25" fill-rule="evenodd" fill="#fe72c5" d="m582.13925,529.65458l-65.479,0c-2.891,0 -5.159,2.353 -5.244,5.216l-0.68,25.342l-2.041,73.446c-0.624,22.876 19.19,40.706 40.705,40.706c22.393,0 41.3,-18.34 40.705,-40.706l-2.041,-73.418l-0.68,-25.37c-0.086,-2.863 -2.354,-5.216 -5.245,-5.216z" clip-rule="evenodd"/>
    </g>
    <g stroke="null" id="svg_26">
     <path stroke="null" id="svg_27" fill-rule="evenodd" fill="#fe4eb7" d="m561.39025,549.12858l2.324,84.53c0.482,17.745 -11.31,32.967 -27.411,38.466c4.195,1.446 8.589,2.239 13.096,2.239c13.181,0 25.143,-6.35 32.655,-16.129c5.244,-6.832 8.305,-15.364 8.05,-24.577l-2.041,-73.418l-0.68,-25.37c-0.085,-2.863 -2.353,-5.216 -5.244,-5.216l-26.362,0c2.863,0 5.159,2.353 5.216,5.216l0.397,14.259z" clip-rule="evenodd"/>
    </g>
    <g stroke="null" id="svg_28">
     <path stroke="null" id="svg_29" fill-rule="evenodd" fill="#fe4eb7" d="m833.96425,583.28658l2.324,84.36c0.482,17.915 -11.537,33.222 -27.836,38.637c4.053,1.332 8.305,2.069 12.642,2.069c14.003,0 26.645,-7.172 33.987,-18c4.422,-6.491 6.945,-14.315 6.718,-22.706l-2.013,-73.418l-0.709,-25.37c-0.085,-2.863 -2.353,-5.216 -5.216,-5.216l-25.511,0c2.863,0 5.159,2.353 5.216,5.216l0.398,14.428z" clip-rule="evenodd"/>
    </g>
    <g stroke="null" id="svg_30">
     <path stroke="null" id="svg_31" d="m685.24725,671.18858c-12.992,0 -25.984,-2.122 -37.572,-6.365c-3.89,-1.424 -5.888,-5.732 -4.464,-9.621c1.424,-3.891 5.732,-5.89 9.621,-4.464c19.994,7.32 44.835,7.32 64.829,0c3.889,-1.423 8.198,0.574 9.621,4.464c1.424,3.889 -0.574,8.197 -4.464,9.621c-11.586,4.244 -24.579,6.365 -37.571,6.365z"/>
    </g>
    <g stroke="null" id="svg_32">
     <path stroke="null" id="svg_33" fill-rule="evenodd" fill="#ffe07d" d="m871.06925,421.65358l-8.135,-21.629l-19.247,-7.313l-67.718,64.12l6.406,21.034l19.7,9.099l68.994,-65.311z" clip-rule="evenodd"/>
    </g>
    <g stroke="null" id="svg_34">
     <path stroke="null" id="svg_35" fill-rule="evenodd" fill="#fe93d3" d="m802.07525,486.96458l-26.107,-30.133c-6.378,6.038 -12.784,12.104 -19.162,18.142c-10.8,10.233 -21.259,21.685 -45.609,28.092c23.3,24.605 41.725,23.018 57.939,12.784c5.868,-3.713 11.452,-8.532 16.866,-13.663l16.073,-15.222z" clip-rule="evenodd"/>
    </g>
    <g stroke="null" id="svg_36">
     <path stroke="null" id="svg_37" fill-rule="evenodd" fill="#fe72c5" d="m769.13725,515.84958c11.565,-7.285 21.855,-18.397 31.776,-27.78l1.162,-1.106l-8.022,-9.241l-3.657,-4.224l-3.061,2.891c-11.905,11.254 -25.37,26.419 -43.143,26.986c-8.589,0.283 -14.513,0.709 -21.543,-4.054c-3.458,1.389 -7.257,2.636 -11.452,3.742c10.63,11.254 20.267,17.036 29.14,18.992c2.438,0.539 4.819,0.794 7.115,0.822c7.739,0.002 14.91,-2.748 21.685,-7.028z" clip-rule="evenodd"/>
    </g>
    <g stroke="null" id="svg_38">
     <path stroke="null" id="svg_39" fill-rule="evenodd" fill="#ffd064" d="m802.07525,486.96458l68.994,-65.311l-12.104,-13.096l-68.568,64.942l3.656,4.224l8.022,9.241z" clip-rule="evenodd"/>
    </g>
    <g stroke="null" id="svg_40">
     <path stroke="null" id="svg_41" fill-rule="evenodd" fill="#365e7d" d="m941.70725,323.91358c-8.731,-9.213 -20.891,-13.351 -32.711,-12.274l-1.871,0.227c-7.965,1.106 -15.647,4.592 -21.911,10.488l-49.492,46.858l23.159,36.511l31.804,21.544l49.492,-46.857c4.564,-4.337 7.88,-9.496 9.949,-15.052c4.365,-11.792 3.005,-25.314 -4.167,-36.114c-1.247,-1.872 -2.664,-3.658 -4.252,-5.331z" clip-rule="evenodd"/>
    </g>
    <g stroke="null" id="svg_42">
     <path stroke="null" id="svg_43" fill-rule="evenodd" fill="#2b4d66" d="m890.68525,427.26658l49.492,-46.857c4.564,-4.337 7.88,-9.496 9.949,-15.052c4.365,-11.792 3.005,-25.314 -4.167,-36.114c-1.247,-1.871 -2.664,-3.657 -4.252,-5.329c-2.268,-2.409 -4.762,-4.45 -7.455,-6.151c5.839,10.318 6.69,22.734 2.665,33.648c-2.069,5.556 -5.386,10.715 -9.949,15.052l-49.492,46.857l13.209,13.946z" clip-rule="evenodd"/>
    </g>
    <g stroke="null" id="svg_44">
     <path stroke="null" id="svg_45" fill-rule="evenodd" fill="#f9f6f6" d="m890.68525,427.26658l-54.963,-58.054l-21.146,20.041c-3.26,3.09 -3.401,8.306 -0.312,11.565l8.135,8.617l27.382,28.914l8.164,8.617c3.09,3.288 8.305,3.43 11.565,0.312l21.175,-20.012z" clip-rule="evenodd"/>
    </g>
    <g stroke="null" id="svg_46">
     <path stroke="null" id="svg_47" fill-rule="evenodd" fill="#dddaec" d="m869.51025,447.27858l21.174,-20.013l-13.209,-13.947l-21.146,20.013c-3.26,3.09 -8.419,2.976 -11.537,-0.227l0.028,0l4.961,5.244l8.164,8.617c3.09,3.29 8.305,3.432 11.565,0.313z" clip-rule="evenodd"/>
    </g>
    <path stroke="null" id="svg_48" fill-rule="evenodd" fill="#fe72c5" d="m802.07525,486.96458l-26.107,-30.133c-6.378,6.038 -12.784,12.104 -19.162,18.142c-10.8,10.233 -21.259,21.685 -45.609,28.092c23.3,24.605 41.725,23.018 57.939,12.784c5.868,-3.713 11.452,-8.532 16.866,-13.663l16.073,-15.222z" clip-rule="evenodd"/>
    <g stroke="null" id="svg_49">
     <path stroke="null" id="svg_50" d="m853.53225,741.58758c-20.013,7.302 -44.859,7.301 -64.842,0.001c-3.89,-1.422 -8.197,0.58 -9.618,4.471s0.58,8.197 4.471,9.618c11.58,4.23 24.565,6.345 37.557,6.345c12.988,0 25.983,-2.115 37.574,-6.344c3.891,-1.42 5.895,-5.725 4.475,-9.616s-5.729,-5.893 -9.617,-4.475z"/>
     <path stroke="null" id="svg_51" d="m889.01225,751.70658c-4.142,0 -7.5,3.358 -7.5,7.5l0,49.267c0,4.142 3.358,7.5 7.5,7.5s7.5,-3.358 7.5,-7.5l0,-49.267c0,-4.142 -3.358,-7.5 -7.5,-7.5z"/>
     <g stroke="null" id="svg_52">
      <path stroke="null" id="svg_53" d="m581.83625,707.59958c-20.006,7.299 -44.865,7.3 -64.873,0c-3.891,-1.42 -8.196,0.584 -9.616,4.475c-1.419,3.892 0.584,8.197 4.475,9.617c11.59,4.228 24.584,6.342 37.578,6.342s25.988,-2.114 37.577,-6.342c3.892,-1.42 5.895,-5.725 4.476,-9.617c-1.421,-3.891 -5.727,-5.893 -9.617,-4.475z"/>
      <path stroke="null" id="svg_54" d="m947.15425,318.75758c-0.047,-0.049 -0.095,-0.099 -0.144,-0.147c-18.732,-18.733 -48.14,-19.483 -66.962,-1.693l-10.233,9.723c-3.003,2.853 -3.124,7.601 -0.271,10.603c2.854,3.003 7.602,3.125 10.603,0.271l10.218,-9.709c12.842,-12.136 33.012,-11.541 45.966,1.339c12.238,13.007 11.659,33.539 -1.309,45.816l-44.058,41.692l-44.657,-47.169l12.237,-11.612c3.004,-2.851 3.129,-7.598 0.278,-10.603c-2.851,-3.003 -7.598,-3.129 -10.603,-0.278l-38.803,36.819c-6.275,5.949 -6.543,15.893 -0.599,22.165l4.714,4.98s-63.578,60.191 -64.429,61.007c-5.528,5.299 -10.886,10.433 -18.129,14.878l-0.256,-8.951c-0.136,-6.946 -5.84,-12.597 -12.714,-12.597l-65.507,0c-6.922,0 -12.506,5.501 -12.713,12.535l-0.606,21.694c-18.449,14.31 -29.358,36.313 -29.358,59.615l0,11.862c-4.058,-5.439 -8.863,-10.37 -14.338,-14.618l-0.599,-21.731c-0.208,-7.005 -5.804,-12.493 -12.741,-12.493l-65.481,0c-6.937,0 -12.533,5.488 -12.741,12.509l-0.598,21.716c-18.438,14.307 -29.34,36.312 -29.34,59.623l0,192.47c0,4.142 3.358,7.5 7.5,7.5s7.5,-3.358 7.5,-7.5l0,-192.471c0,-14.072 4.97,-27.557 13.752,-38.26l-1.536,55.711c-0.339,12.439 4.377,24.328 13.28,33.477c9.236,9.491 21.964,14.934 34.922,14.934c13.025,0 25.735,-5.38 34.869,-14.761c8.931,-9.172 13.666,-21.12 13.333,-33.651l-1.535,-55.71c8.746,10.658 13.708,24.076 13.749,38.083l0,192.647c0,4.142 3.358,7.5 7.5,7.5l0.002,0s0.001,0 0.002,0c4.142,0 7.5,-3.358 7.5,-7.5l0,-192.47c0,-0.089 -0.004,-0.178 -0.004,-0.267l0,-56.6c0,-14.07 4.977,-27.556 13.771,-38.261l-1.528,55.745c-0.339,12.423 4.374,24.3 13.272,33.444c9.238,9.493 21.969,14.938 34.93,14.938c13.037,0 25.754,-5.388 34.891,-14.782c8.915,-9.167 13.632,-21.101 13.283,-33.6l-1.346,-49.272c1.845,0.724 3.69,1.314 5.536,1.778c5.272,9.154 8.053,19.463 8.053,30.01l0,249.337c0,4.142 3.358,7.5 7.5,7.5l0.001,0c4.142,0 7.5,-3.358 7.5,-7.5l0,-158.49c0,-14.079 4.974,-27.567 13.761,-38.267l-1.519,55.717c-0.354,12.427 4.349,24.312 13.244,33.464c9.238,9.505 21.969,14.956 34.93,14.956c13.026,0 25.735,-5.38 34.87,-14.762c8.931,-9.172 13.666,-21.12 13.332,-33.651l-1.535,-55.718c8.779,10.697 13.748,24.182 13.748,38.26l0,74.58c0,4.142 3.358,7.5 7.5,7.5s7.5,-3.358 7.5,-7.5l0,-74.58c0,-23.321 -10.901,-45.326 -29.336,-59.619l-0.599,-21.728c-0.208,-7.005 -5.792,-12.493 -12.712,-12.493l-65.508,0c-6.936,0 -12.533,5.488 -12.741,12.511l-0.592,21.718c-5.473,4.246 -10.287,9.166 -14.344,14.604l0,-45.84c0,-10.161 -2.065,-20.141 -6.022,-29.417c6.123,-1.103 12.279,-3.61 18.491,-7.531c5.522,-3.495 11.078,-7.984 18.012,-14.555l60.057,-56.863l1.262,1.333c2.875,3.061 6.778,4.808 10.988,4.92c0.144,0.003 0.287,0.005 0.43,0.005c4.049,0 7.868,-1.527 10.768,-4.302l20.901,-19.778c0.091,-0.079 0.186,-0.152 0.275,-0.236c0.084,-0.08 0.158,-0.166 0.238,-0.249l49.254,-46.608c19.002,-17.987 19.818,-48.086 1.823,-67.096zm-373.632,337.881c-6.328,6.499 -15.12,10.226 -24.123,10.226c-8.933,0 -17.744,-3.789 -24.172,-10.396c-6.054,-6.222 -9.263,-14.25 -9.036,-22.604l2.664,-96.71l61.087,0l2.664,96.704c0.226,8.443 -3.001,16.533 -9.084,22.78zm135.877,-56.878c-6.329,6.508 -15.126,10.24 -24.137,10.24c-8.936,0 -17.749,-3.791 -24.18,-10.399c-6.049,-6.217 -9.255,-14.234 -9.028,-22.573l2.664,-96.738l61.061,0l0.385,13.445c-2.147,0.738 -4.429,1.433 -6.873,2.076c-2.562,0.674 -4.578,2.649 -5.305,5.197c-0.726,2.547 -0.054,5.289 1.767,7.213c3.707,3.915 7.401,7.293 11.087,10.168l1.602,58.642c0.234,8.42 -2.978,16.492 -9.043,22.729zm78.517,68.09l2.636,-96.708l61.086,0l2.664,96.704c0.225,8.443 -3.001,16.533 -9.084,22.78c-6.328,6.499 -15.121,10.226 -24.123,10.226c-8.932,0 -17.743,-3.794 -24.173,-10.411c-6.045,-6.221 -9.244,-14.24 -9.006,-22.591zm-7.072,-171.108c-6.202,5.877 -11.05,9.815 -15.71,12.765c-9.961,6.287 -22.302,10.381 -39.527,-3.286c16.205,-6.494 25.494,-15.397 33.875,-23.432c0.83,-0.796 15.951,-15.123 15.951,-15.123l16.276,18.786l-10.865,10.29zm21.767,-20.613l-16.275,-18.784l37.502,-35.494l12.458,13.155l4.609,4.869l-38.294,36.254zm61.715,-34.27c-0.123,0.118 -0.279,0.182 -0.459,0.169c-0.185,-0.005 -0.338,-0.071 -0.475,-0.217l-6.385,-6.745c-0.018,-0.019 -0.033,-0.04 -0.051,-0.059l-10.133,-10.7l-27.115,-28.647c-0.241,-0.253 -0.227,-0.722 0.031,-0.966l15.687,-14.885l44.643,47.154l-15.743,14.896z"/>
     </g>
    </g>
   </g>
  </g>
  <path stroke="#DDDDDD" transform="rotate(16.202741622924805 34.82247924804687,22.99780273437501) " stroke-width="0" id="svg_63" d="m25.33957,20.87113l7.24434,0l2.23856,-6.8821l2.23856,6.8821l7.24434,0l-5.86078,4.25333l2.23867,6.8821l-5.86079,-4.25344l-5.86079,4.25344l2.23868,-6.8821l-5.86079,-4.25333z" fill="#ffdbe7"/>
  <path stroke="#DDDDDD" transform="rotate(16.202741622924805 177.54974365234398,114.36141967773443) " stroke-width="0" id="svg_58" d="m168.06686,112.23477l7.24434,0l2.23856,-6.8821l2.23856,6.8821l7.24434,0l-5.86078,4.25332l2.23867,6.8821l-5.86079,-4.25344l-5.86079,4.25344l2.23867,-6.8821l-5.86078,-4.25332z" fill="#ffdbe7"/>
  <path transform="rotate(-18.922557830810547 26.40360069274905,132.93113708496094) " stroke="#DDDDDD" stroke-width="0" id="svg_59" d="m14.87251,130.34513l8.80904,0l2.72206,-8.36855l2.72206,8.36855l8.80903,0l-7.12664,5.17199l2.7222,8.36855l-7.12665,-5.17213l-7.12665,5.17213l2.7222,-8.36855l-7.12665,-5.17199z" fill="#ffdbe7"/>
  <path stroke="#DDDDDD" transform="rotate(18.012590408325195 107.05038452148408,177.37438964843756) " stroke-width="0" id="svg_60" d="m98.78084,175.51984l6.31741,0l1.95213,-6.00152l1.95213,6.00152l6.31741,0l-5.11089,3.7091l1.95223,6.00152l-5.11088,-3.7092l-5.11089,3.7092l1.95223,-6.00152l-5.11088,-3.7091z" fill="#ffdbe7"/>
  <path stroke="#DDDDDD" transform="rotate(18.012590408325195 165.71432495117185,30.074066162109386) " stroke-width="0" id="svg_57" d="m157.44479,28.21952l6.31741,0l1.95213,-6.00152l1.95213,6.00152l6.31741,0l-5.11088,3.7091l1.95223,6.00152l-5.11089,-3.7092l-5.11089,3.7092l1.95223,-6.00152l-5.11089,-3.7091z" fill="#ffd6e4"/>
  <path stroke="#DDDDDD" transform="rotate(-36.9140739440918 39.79061889648438,69.74911499023438) " stroke-width="0" id="svg_67" d="m36.51333,68.06098l1.58915,-1.58915l1.68813,1.68811l1.68813,-1.68811l1.58916,1.58915l-1.68813,1.68813l1.68813,1.68813l-1.58916,1.58917l-1.68813,-1.68814l-1.68813,1.68814l-1.58915,-1.58917l1.68811,-1.68813l-1.68811,-1.68813z" fill="#ffdbe7"/>
  <path stroke="#DDDDDD" transform="rotate(-36.9140739440918 144.55712890624997,143.19692993164062) " stroke-width="0" id="svg_68" d="m142.13043,141.94692l1.17671,-1.17671l1.25,1.24999l1.25,-1.24999l1.17672,1.17671l-1.25,1.25l1.25,1.25l-1.17672,1.17672l-1.25,-1.25l-1.25,1.25l-1.17671,-1.17672l1.24999,-1.25l-1.24999,-1.25z" fill="#ffdbe7"/>
  <path stroke="#DDDDDD" transform="rotate(-36.9140739440918 107.96997070312503,31.221633911132823) " stroke-width="0" id="svg_66" d="m104.99223,29.68779l1.4439,-1.4439l1.53383,1.53382l1.53383,-1.53382l1.44392,1.4439l-1.53384,1.53383l1.53384,1.53383l-1.44392,1.44392l-1.53383,-1.53384l-1.53383,1.53384l-1.4439,-1.44392l1.53382,-1.53383l-1.53382,-1.53383z" fill="#ffdbe7"/>
  <path transform="rotate(-35.09510040283203 79.01702880859375,60.078582763671854) " id="svg_71" d="m79.01702,57.76048c1.83981,-5.27815 9.04825,0 0,6.78618c-9.04825,-6.78618 -1.83981,-12.06433 0,-6.78618z" stroke-width="0" stroke="#DDDDDD" fill="#ffdbe7"/>
  <path transform="rotate(11.936271667480469 76.03829956054699,144.7594299316406) " id="svg_70" d="m76.0383,142.44133c1.83981,-5.27815 9.04825,0 0,6.78618c-9.04825,-6.78618 -1.83981,-12.06433 0,-6.78618z" stroke-width="0" stroke="#DDDDDD" fill="#ffdbe7"/>
  <path transform="rotate(39.67250442504883 156.03829956054682,83.48281860351562) " id="svg_69" d="m156.0383,81.16473c1.83981,-5.27814 9.04825,0 0,6.78619c-9.04825,-6.78619 -1.83981,-12.06433 0,-6.78619z" stroke-width="0" stroke="#DDDDDD" fill="#ffdbe7"/>
 </g>
</svg>